<mxfile host="app.diagrams.net" agent="Mozilla/5.0 (Macintosh; Intel Mac OS X 10.15; rv:133.0) Gecko/20100101 Firefox/133.0" version="25.0.3">
  <diagram name="Page-1" id="c37626ed-c26b-45fb-9056-f9ebc6bb27b6">
    <mxGraphModel dx="1037" dy="515" grid="1" gridSize="10" guides="1" tooltips="1" connect="1" arrows="1" fold="1" page="1" pageScale="1" pageWidth="1100" pageHeight="850" background="none" math="0" shadow="0">
      <root>
        <mxCell id="0" />
        <mxCell id="1" parent="0" />
        <mxCell id="8aXTZsULx1QP20d2w44z-3" style="edgeStyle=orthogonalEdgeStyle;rounded=0;orthogonalLoop=1;jettySize=auto;html=1;endArrow=none;endFill=0;shape=link;" edge="1" parent="1" source="8aXTZsULx1QP20d2w44z-1" target="8aXTZsULx1QP20d2w44z-2">
          <mxGeometry relative="1" as="geometry" />
        </mxCell>
        <mxCell id="8aXTZsULx1QP20d2w44z-1" value="" style="shape=mxgraph.cisco.switches.layer_3_switch;sketch=0;html=1;pointerEvents=1;dashed=0;fillColor=#036897;strokeColor=#ffffff;strokeWidth=2;verticalLabelPosition=bottom;verticalAlign=top;align=center;outlineConnect=0;" vertex="1" parent="1">
          <mxGeometry x="400" y="210" width="64" height="64" as="geometry" />
        </mxCell>
        <mxCell id="8aXTZsULx1QP20d2w44z-2" value="" style="shape=mxgraph.cisco.switches.layer_3_switch;sketch=0;html=1;pointerEvents=1;dashed=0;fillColor=#036897;strokeColor=#ffffff;strokeWidth=2;verticalLabelPosition=bottom;verticalAlign=top;align=center;outlineConnect=0;" vertex="1" parent="1">
          <mxGeometry x="550" y="210" width="64" height="64" as="geometry" />
        </mxCell>
        <mxCell id="8aXTZsULx1QP20d2w44z-11" style="edgeStyle=none;shape=connector;rounded=0;orthogonalLoop=1;jettySize=auto;html=1;exitX=0.5;exitY=0;exitDx=0;exitDy=0;exitPerimeter=0;strokeColor=default;align=center;verticalAlign=middle;fontFamily=Helvetica;fontSize=11;fontColor=default;labelBackgroundColor=default;endArrow=none;endFill=0;" edge="1" parent="1" source="8aXTZsULx1QP20d2w44z-4" target="8aXTZsULx1QP20d2w44z-1">
          <mxGeometry relative="1" as="geometry" />
        </mxCell>
        <mxCell id="8aXTZsULx1QP20d2w44z-4" value="" style="shape=mxgraph.cisco.switches.layer_3_switch;sketch=0;html=1;pointerEvents=1;dashed=0;fillColor=#036897;strokeColor=#ffffff;strokeWidth=2;verticalLabelPosition=bottom;verticalAlign=top;align=center;outlineConnect=0;" vertex="1" parent="1">
          <mxGeometry x="400" y="340" width="64" height="64" as="geometry" />
        </mxCell>
        <mxCell id="8aXTZsULx1QP20d2w44z-10" style="edgeStyle=none;shape=connector;rounded=0;orthogonalLoop=1;jettySize=auto;html=1;exitX=0.5;exitY=0;exitDx=0;exitDy=0;exitPerimeter=0;strokeColor=default;align=center;verticalAlign=middle;fontFamily=Helvetica;fontSize=11;fontColor=default;labelBackgroundColor=default;endArrow=none;endFill=0;" edge="1" parent="1" source="8aXTZsULx1QP20d2w44z-5" target="8aXTZsULx1QP20d2w44z-2">
          <mxGeometry relative="1" as="geometry" />
        </mxCell>
        <mxCell id="8aXTZsULx1QP20d2w44z-5" value="" style="shape=mxgraph.cisco.switches.layer_3_switch;sketch=0;html=1;pointerEvents=1;dashed=0;fillColor=#036897;strokeColor=#ffffff;strokeWidth=2;verticalLabelPosition=bottom;verticalAlign=top;align=center;outlineConnect=0;" vertex="1" parent="1">
          <mxGeometry x="550" y="340" width="64" height="64" as="geometry" />
        </mxCell>
        <mxCell id="8aXTZsULx1QP20d2w44z-6" style="rounded=0;orthogonalLoop=1;jettySize=auto;html=1;exitX=0.08;exitY=0.05;exitDx=0;exitDy=0;exitPerimeter=0;entryX=0.95;entryY=0.94;entryDx=0;entryDy=0;entryPerimeter=0;startArrow=none;startFill=0;endArrow=none;endFill=0;strokeColor=default;" edge="1" parent="1" source="8aXTZsULx1QP20d2w44z-5" target="8aXTZsULx1QP20d2w44z-1">
          <mxGeometry relative="1" as="geometry" />
        </mxCell>
        <mxCell id="8aXTZsULx1QP20d2w44z-9" style="rounded=0;orthogonalLoop=1;jettySize=auto;html=1;exitX=1;exitY=0;exitDx=0;exitDy=0;exitPerimeter=0;entryX=0;entryY=1;entryDx=0;entryDy=0;entryPerimeter=0;endArrow=none;endFill=0;" edge="1" parent="1" source="8aXTZsULx1QP20d2w44z-4" target="8aXTZsULx1QP20d2w44z-2">
          <mxGeometry relative="1" as="geometry" />
        </mxCell>
        <mxCell id="8aXTZsULx1QP20d2w44z-32" value="" style="ellipse;whiteSpace=wrap;html=1;fontFamily=Helvetica;fontSize=11;fontColor=default;labelBackgroundColor=default;fillColor=none;" vertex="1" parent="1">
          <mxGeometry x="499.5" y="230" width="10.5" height="20" as="geometry" />
        </mxCell>
      </root>
    </mxGraphModel>
  </diagram>
</mxfile>
